<?xml version="1.0" encoding="utf-8"?>
<!-- Generator: Adobe Illustrator 22.0.1, SVG Export Plug-In . SVG Version: 6.00 Build 0)  -->
<svg version="1.1" xmlns="http://www.w3.org/2000/svg" xmlns:xlink="http://www.w3.org/1999/xlink" x="0px" y="0px"
	 viewBox="0 0 375.9 397.3" style="enable-background:new 0 0 375.9 397.3;" xml:space="preserve">
<style type="text/css">
	.st0{display:none;}
	.st1{display:inline;}
	.st2{fill:#FFFFFF;}
</style>
<g id="Layer_1" class="st0">
	<g id="udcOA4.tif" class="st1">
		
			<image style="overflow:visible;" width="640" height="640" id="Layer_0_1_" xlink:href="4715B35203458F76.png"  transform="matrix(1 0 0 1 -203 -45.7244)">
		</image>
	</g>
</g>
<g id="Layer_3" class="st0">
	<g id="_x35_ot3Y3.tif" class="st1">
		
			<image style="overflow:visible;" width="400" height="400" id="Layer_0_2_" xlink:href="4715B35203458F7A.png"  transform="matrix(1 0 0 1 116 4.2756)">
		</image>
	</g>
</g>
<g id="Layer_2">
	<g>
		<g id="XMLID_1_">
			<g>
				<path class="st2" d="M94.3,30.2c9.9,6,9.9,24.2,9.9,37.4c0,10.3-4.5,18-10.2,23c-2.6,2.3-5.5,4-8.2,5.2
					c-9.2,3.9-26.4,1.7-29.5,1.2c-2.5-1.4-5.7-3.5-9-6.3c0,0,0,0,0,0c-0.2-0.1-0.3-0.3-0.5-0.4c-4.9-4.2-9.8-9.7-12.3-16.2
					c-4.5-11.5-3.9-21.3,2.3-35c4.7-10.3,11-12,19.6-14.4c1.9-0.5,3.8-1,5.9-1.7C71.2,20.3,81.7,22.6,94.3,30.2z M88.8,82.3
					c3-2.8,4.5-7.8,3.2-10s-2-2.8-3.2-3.2S84,69,84,69s-4.2,2.5-3,7.5S85.8,85,88.8,82.3z M59.2,82.3c3-2.8,4.5-7.8,3.2-10
					s-2-2.8-3.2-3.2s-4.8,0-4.8,0s-4.2,2.5-3,7.5S56.2,85,59.2,82.3z"/>
				<path class="st2" d="M203.8,30.2c9.9,6,9.9,24.2,9.9,37.4c0,10.3-4.5,18-10.2,23c-2.6,2.3-5.5,4-8.2,5.2
					c-9.2,3.9-26.4,1.7-29.5,1.2c-2.5-1.4-5.7-3.5-9-6.3c0,0,0,0,0,0c-0.2-0.1-0.3-0.3-0.5-0.4c-4.9-4.2-9.8-9.7-12.3-16.2
					c-4.5-11.5-3.9-21.3,2.3-35c4.7-10.3,10.9-12,19.6-14.4c1.9-0.5,3.8-1,5.9-1.7C180.7,20.3,191.2,22.6,203.8,30.2z M203.6,77.3
					c3-2.8,4.5-7.8,3.2-10s-2-2.8-3.2-3.2s-4.8,0-4.8,0s-4.2,2.5-3,7.5S200.6,80,203.6,77.3z M173.6,82.3c3-2.8,4.5-7.8,3.2-10
					s-2-2.8-3.2-3.2s-4.8,0-4.8,0s-4.2,2.5-3,7.5S170.6,85,173.6,82.3z"/>
				<path class="st2" d="M323.9,30.2c9.9,6,9.9,24.2,9.9,37.4c0,10.3-4.5,18-10.2,23c-2.6,2.3-5.5,4-8.2,5.2
					c-9.2,3.9-26.4,1.7-29.5,1.2c-2.5-1.4-5.7-3.5-9-6.3c0,0,0,0,0,0c-0.2-0.1-0.3-0.3-0.5-0.4c-4.9-4.2-9.8-9.7-12.3-16.2
					c-4.5-11.5-3.9-21.3,2.3-35c4.7-10.3,10.9-12,19.6-14.4c1.9-0.5,3.8-1,5.9-1.7C300.8,20.3,311.3,22.6,323.9,30.2z M318.3,82.3
					c3-2.8,4.5-7.8,3.2-10s-2-2.8-3.2-3.2s-4.8,0-4.8,0s-4.2,2.5-3,7.5S315.3,85,318.3,82.3z M288.8,82.3c3-2.8,4.5-7.8,3.2-10
					s-2-2.8-3.2-3.2s-4.8,0-4.8,0s-4.2,2.5-3,7.5S285.8,85,288.8,82.3z"/>
				<path class="st2" d="M276.2,99.9C276.2,99.8,276.2,99.8,276.2,99.9c0-0.1,0-0.2,0-0.2c0.1-0.5,0.2-0.9,0.2-1.4
					c2.5,1.9,4.9,3.3,6.8,4.3l0.4,0.2l0.5,0.1c0.5,0.1,7.5,1.2,15.7,1.2c6,0,12.7-0.6,17.6-2.7c2.2-0.9,4.5-2.2,6.7-3.7
					c0.5,1.7,1,3.8,1.5,6.4c5,23.9,12.2,83.6,11.3,91.5c-0.4,3.7-1.1,5-2.8,6.2c-0.6,0.5-1.4,0.9-2.4,1.4c-1,0.6-2.2,1.3-3.6,2.2
					c-1.2,0.8-7.8,3-44.1-0.4l-0.6-0.1c-4.4-0.4-8-4.3-9.3-5.8c-0.4-6.5-3-45.1-3-59.6c0-6.6,1.1-15.7,2.3-24.2
					c0-0.2,0.1-0.4,0.1-0.7C274.7,109,275.6,103.9,276.2,99.9z"/>
				<path class="st2" d="M205.7,103.8c2.1,10,4.6,26.3,6.7,42.5l-22.9,28c-1.1,1.3-0.9,3.2,0.4,4.2c0.6,0.5,1.2,0.7,1.9,0.7
					c0.9,0,1.7-0.4,2.3-1.1l19.3-23.6c2.4,19.4,4.1,37,3.6,41.1c-0.4,3.7-1.1,5-2.8,6.2c-0.6,0.5-1.4,0.9-2.4,1.4
					c-1,0.6-2.2,1.3-3.6,2.2c-1.2,0.8-7.8,3-44.1-0.4l-0.6-0.1c-4.4-0.4-8-4.3-9.3-5.8c-0.2-3.2-0.9-14-1.6-26l47.6,20.4
					c0.4,0.2,0.8,0.2,1.2,0.2c1.2,0,2.3-0.7,2.8-1.8c0.7-1.5-0.1-3.3-1.6-3.9l-50.3-21.6c-0.5-10.4-1-20.8-1-26.9c0-0.7,0-1.4,0-2.1
					c1.6-13.1,3.5-27.6,4.8-37.5c0.1-0.6,0.2-1.2,0.3-1.7c2.5,1.9,4.9,3.3,6.8,4.3l0.4,0.2l0.5,0.1c0.5,0.1,7.6,1.2,15.7,1.2
					c6,0,12.7-0.6,17.6-2.7c2.2-0.9,4.5-2.2,6.7-3.7C204.6,99.2,205.1,101.3,205.7,103.8z"/>
				<path class="st2" d="M46.7,99.9C46.7,99.8,46.7,99.8,46.7,99.9c0-0.1,0-0.2,0-0.2c0.1-0.5,0.2-0.9,0.2-1.4
					c2.5,1.9,4.9,3.3,6.8,4.3l0.4,0.2l0.5,0.1c0.5,0.1,7.5,1.2,15.7,1.2c6,0,12.7-0.6,17.7-2.7c2.2-0.9,4.5-2.2,6.7-3.7
					c0.5,1.7,1,3.8,1.5,6.4c5,23.9,12.2,83.6,11.3,91.5c-0.4,3.7-1.1,5-2.8,6.2c-0.6,0.5-1.4,0.9-2.3,1.4c-1,0.6-2.2,1.3-3.6,2.2
					c-1.2,0.8-7.8,3-44.1-0.4l-0.6-0.1c-4.4-0.4-8-4.3-9.3-5.8c-0.4-6.5-3-45.1-3-59.6c0-6.6,1.1-15.7,2.3-24.2
					c0-0.2,0.1-0.4,0.1-0.7C45.2,109,46,103.9,46.7,99.9z"/>
				<path d="M348.4,375.4c0.7,8.3,0,12.6,0,12.8c-0.2,1.5-1.5,2.5-3,2.5c-0.2,0-0.3,0-0.5,0c-1.6-0.3-2.7-1.8-2.5-3.4
					c0,0,0.6-3.8,0-11.3c-0.4-5.3-0.3-13.3-0.2-22.6c0.1-5.2,0.2-11,0.2-17c0-11.7-1.7-26.4-3.4-40.5c-0.7-5.7-1.3-11.6-1.9-17.2
					c-1.6-15.7-3.3-55.1-3.9-69.1c0.6-0.4,1.2-0.7,1.7-1c1.6-0.9,3-1.8,4.2-2.8c0.4,8.8,2.3,55.1,4,72.3c0.6,5.5,1.2,11.4,1.9,17.1
					c1.7,14.3,3.4,29.2,3.4,41.2c0,6-0.1,11.9-0.2,17.1C348.1,362.5,348,370.4,348.4,375.4z"/>
				<path d="M342.9,190.2c-1-17.5-6.4-65.3-11.4-87.8c0,0.1,0.1,0.2,0.1,0.3c0.8,3.9,20.1,94.7,20.7,111.1l0.7,16.3
					c0.1,1.6-1.2,3.1-2.9,3.1c0,0-0.1,0-0.1,0c-1.6,0-2.9-1.3-3-2.9l-0.7-16.3C346.2,210.1,344.9,201.2,342.9,190.2z"/>
				<path d="M331.6,102.4c5,22.5,10.3,70.3,11.4,87.8c-5.7-32.3-16.5-83.3-17.1-86.1c0-0.1,0-0.1,0-0.1c-0.3-1.6,0.7-3.2,2.3-3.6
					C329.6,100.1,331.1,101,331.6,102.4z"/>
				<path d="M335.9,201.3c1.6,0,3.1,1.2,3.1,2.9c0,0.1,0,0.6,0.1,1.5c-1.2,1.1-2.5,1.9-4.2,2.8c-0.5,0.3-1.1,0.6-1.7,1
					c-0.1-3.1-0.2-5-0.2-5.1c0-1,0.5-2,1.3-2.6C334.8,201.5,335.3,201.3,335.9,201.3z"/>
				<path d="M335.9,201.3c-0.6,0-1.2,0.2-1.6,0.6v0c1.7-1.2,2.3-2.5,2.8-6.2c1-7.9-6.3-67.6-11.3-91.5h0
					c0.6,2.8,11.4,53.8,17.1,86.1c0.2,3,0.2,5.2,0.1,6.1c-0.6,4.9-1.9,7.4-3.9,9.3c0-0.9-0.1-1.4-0.1-1.5
					C339,202.5,337.6,201.2,335.9,201.3z"/>
				<path d="M328,91.1c0.4,0.5,0.8,1.4,1.1,2.4c-1.5,1.5-3.2,2.9-4.9,4.1c-0.4-1.5-0.8-2.6-1.2-3.1c-0.9-1.2-0.6-2.9,0.4-3.9
					c0.1-0.1,0.2-0.2,0.3-0.3C325.2,89.4,327.1,89.8,328,91.1z"/>
				<path d="M328.1,100.4c-1.6,0.3-2.6,1.9-2.3,3.6c0,0,0,0,0,0.1h0c-0.5-2.6-1.1-4.8-1.5-6.4c1.7-1.2,3.3-2.6,4.9-4.1
					c0.8,2.1,1.6,5.1,2.4,8.8C331.1,101,329.6,100.1,328.1,100.4z"/>
				<path d="M263.9,74.2c2.5,6.4,7.4,12,12.3,16.2c-0.3-0.2-0.7-0.4-1.1-0.5c-1.6-0.3-3.2,0.7-3.5,2.4c0,0.2-0.1,0.8-0.3,1.7
					c-5.1-4.6-10.2-10.6-12.9-17.6c-5.1-13-4.5-24.5,2.4-39.7c5.8-12.9,14.4-15.2,23.5-17.7c1.8-0.5,3.7-1,5.6-1.6
					c10.9-3.4,23-0.9,37.1,7.6c12.8,7.7,12.8,27.9,12.8,42.6c0,11.3-4.5,20-10.6,26c-0.4-1.1-0.8-1.9-1.1-2.4
					c-0.9-1.4-2.8-1.7-4.2-0.8c-0.1,0.1-0.2,0.2-0.3,0.3l0,0c5.7-5,10.2-12.7,10.2-23c0-13.3,0-31.4-9.9-37.4
					c-12.6-7.6-23.1-9.9-32.2-7c-2,0.6-4,1.2-5.9,1.7c-8.7,2.3-15,4-19.6,14.4C260,52.8,259.3,62.7,263.9,74.2z"/>
				<path d="M321.6,72.3c1.2,2.2-0.2,7.2-3.2,10s-6.5-0.8-7.8-5.8s3-7.5,3-7.5s3.5-0.5,4.8,0S320.3,70,321.6,72.3z"/>
				<path d="M292,72.3c1.2,2.2-0.2,7.2-3.2,10s-6.5-0.8-7.8-5.8s3-7.5,3-7.5s3.5-0.5,4.8,0S290.8,70,292,72.3z"/>
				<path d="M276.7,90.8c3.3,2.8,6.5,4.9,9,6.3c3.1,0.5,20.4,2.7,29.5-1.2c2.8-1.2,5.6-2.9,8.2-5.2l0,0c-1.1,1-1.3,2.7-0.4,3.9
					c0.4,0.5,0.8,1.6,1.2,3.1c-2.2,1.5-4.5,2.8-6.7,3.7c-5,2.1-11.6,2.7-17.6,2.7c-8.1,0-15.2-1.1-15.7-1.2l-0.5-0.1l-0.4-0.2
					c-1.9-1-4.3-2.5-6.8-4.3c0.5-2.9,0.9-4.8,0.9-4.8C277.6,92.4,277.3,91.5,276.7,90.8z"/>
				<path d="M276.7,90.8c0.6,0.7,1,1.7,0.8,2.6c0,0.1-0.4,1.9-0.9,4.8c-0.2-0.2-0.5-0.4-0.8-0.6c-0.4-0.5-0.9-0.9-1.5-1.1
					c0,0,0,0,0,0c-1-0.8-2-1.7-3-2.6c0.2-1,0.3-1.5,0.3-1.7c0.3-1.6,1.9-2.7,3.5-2.4c0.4,0.1,0.8,0.2,1.1,0.5
					C276.3,90.5,276.5,90.6,276.7,90.8C276.6,90.8,276.7,90.8,276.7,90.8z"/>
				<path d="M276.6,90.8c-0.2-0.1-0.3-0.3-0.5-0.4C276.3,90.5,276.5,90.6,276.6,90.8z"/>
				<path d="M275.8,97.7c0.3,0.2,0.5,0.4,0.8,0.6c-0.1,0.4-0.2,0.9-0.2,1.4C276.3,98.9,276.1,98.2,275.8,97.7z"/>
				<path d="M275.8,97.7c0.4,0.6,0.6,1.2,0.5,1.9c0,0.1,0,0.1,0,0.2c-0.7,3.9-1.6,9.2-2.4,14.9c0,0.2-0.1,0.4-0.1,0.7
					c-2.3,14-5.1,31.6-7.5,47.4c-0.5-9.1-0.8-17.8-0.8-23.2c0-6.9,1.1-16.3,2.3-25c0-0.1,0-0.1,0-0.2c1.3-8.1,2.3-13.8,2.5-15.3
					c0-0.1,0-0.2,0-0.2c0.3-1.6,1.8-2.7,3.4-2.5c0.2,0,0.4,0.1,0.5,0.1c0,0,0,0,0,0C274.8,96.9,275.3,97.3,275.8,97.7z"/>
				<path d="M276.2,99.8C276.2,99.8,276.2,99.8,276.2,99.8c-0.7,4.1-1.5,9.2-2.4,14.9C274.6,109.1,275.5,103.7,276.2,99.8z"/>
				<path d="M274.4,199.2c1.3,1.5,4.9,5.4,9.3,5.8l0.6,0.1c36.4,3.5,43,1.2,44.1,0.4c1.3-0.9,2.5-1.6,3.6-2.2c1-0.6,1.7-1,2.4-1.4v0
					c-0.8,0.6-1.3,1.5-1.3,2.6c0,0.1,0.1,2,0.2,5.1c-0.5,0.3-1,0.6-1.5,1c-1.8,1.2-5.5,2.4-16.5,2.4c-7,0-17.1-0.5-31.5-1.9
					l-0.6-0.1c-3.6-0.3-6.7-2-9.1-3.8c0.2-4,0.4-6.5,0.4-6.6c0-0.4,0-0.9-0.2-1.3L274.4,199.2z"/>
				<path d="M275.8,97.7c-0.5-0.4-1-0.8-1.5-1.1C274.9,96.8,275.4,97.2,275.8,97.7z"/>
				<path d="M274.2,199.2c0.2,0.4,0.2,0.8,0.2,1.3c0,0.1-0.2,2.6-0.4,6.6c-3.1-2.3-4.9-4.9-5-5.1c-0.3-0.4-0.5-1-0.5-1.5
					c0,0,0-0.1,0-0.2c0-0.1,0-0.2,0-0.2c0.1-1.6,1.5-2.9,3.2-2.8C272.8,197.4,273.8,198.1,274.2,199.2z"/>
				<path d="M271.4,139.6c0,14.5,2.5,53.1,3,59.6l-0.1,0.1c-0.4-1.1-1.4-1.8-2.6-1.9c-1.6-0.1-3.1,1.1-3.2,2.8c0,0.1,0,0.1,0,0.2
					c-0.2-2.3-1.4-20.6-2.2-37.4c2.4-15.8,5.2-33.5,7.5-47.4C272.5,123.9,271.4,133.1,271.4,139.6z"/>
				<path d="M271.2,94c1,0.9,2,1.8,3,2.6c-0.2-0.1-0.3-0.1-0.5-0.1c-1.6-0.3-3.2,0.8-3.4,2.5C270.7,96.8,271,95.1,271.2,94z"/>
				<path d="M265.4,283.7c-1-20.8,2.7-78.8,3-83.5c0,0.1,0,0.1,0,0.2c0,0.6,0.2,1.1,0.5,1.5c0.1,0.2,2,2.8,5,5.1
					c-1,16.5-3.4,59.6-2.6,76.4c0.6,12.1,0.4,18.7,0.2,26.2c-0.1,5.6-0.3,12-0.2,21.9c0.1,7.8,0.6,14.2,0.9,19.9
					c0.7,10.5,1.2,18.1-1.3,25.2c-0.4,1.2-1.6,2-2.8,2c-0.3,0-0.7,0-1-0.2c-1.6-0.5-2.4-2.3-1.8-3.8c2.1-5.9,1.6-12.6,0.9-22.8
					c-0.4-5.7-0.8-12.2-1-20.2c-0.1-10,0-16.4,0.2-22.1C265.8,302.1,266,295.7,265.4,283.7z"/>
				<path d="M267.8,114.4c0.8-5.8,1.8-11.3,2.5-15.3C270,100.6,269.1,106.3,267.8,114.4z"/>
				<path d="M267.7,114.6c-1.3,8.6-2.3,18.1-2.3,25c0,5.5,0.3,14.1,0.8,23.2c-3,19.6-5.4,36.4-5.3,39.7c0.2,8.9,0,24.3,0,24.4
					c0,1.7-1.4,3-3,3c0,0,0,0,0,0c-1.7,0-3-1.4-3-3c0-0.2,0.2-15.4,0-24.2C254.8,195.7,263.3,142,267.7,114.6z"/>
				<path d="M228.3,375.4c0.7,8.3,0,12.6,0,12.8c-0.2,1.5-1.5,2.5-3,2.5c-0.2,0-0.3,0-0.5,0c-1.6-0.3-2.7-1.8-2.5-3.4
					c0,0,0.6-3.8,0-11.3c-0.4-5.3-0.3-13.3-0.2-22.6c0.1-5.2,0.2-11,0.2-17c0-11.7-1.7-26.4-3.4-40.5c-0.7-5.7-1.3-11.6-1.9-17.2
					c-1.6-15.7-3.3-55.1-3.9-69.1c0.6-0.4,1.2-0.7,1.7-1c1.6-0.9,3-1.8,4.2-2.8c0.4,8.8,2.3,55.1,4,72.3c0.6,5.5,1.2,11.4,1.9,17.1
					c1.7,14.3,3.4,29.2,3.4,41.2c0,6-0.1,11.9-0.2,17.1C228,362.5,227.9,370.4,228.3,375.4z"/>
				<path d="M218.6,148.2l-5.2,6.4c-0.3-2.7-0.7-5.4-1-8.2l1.8-2.2c-1-15.8-8.3-39.6-8.4-39.9c0-0.2-0.1-0.3-0.1-0.4
					c-0.2-1.4,0.6-2.9,2.1-3.3c1.6-0.5,3.2,0.4,3.7,1.9C214,113.6,216.6,131.2,218.6,148.2z"/>
				<path d="M214.2,201.8c0.5-0.3,1-0.5,1.6-0.6c1.6,0,3.1,1.2,3.1,2.9c0,0.1,0,0.6,0.1,1.5c-1.2,1.1-2.5,1.9-4.2,2.8
					c-0.5,0.3-1.1,0.6-1.7,1c-0.1-3.1-0.2-5-0.2-5.1C212.9,203.3,213.4,202.4,214.2,201.8z"/>
				<path d="M218.6,148.2c-2.1-16.9-4.7-34.5-7.2-45.8c0,0,0,0,0,0.1c0.3,1.1,8.1,26,8.7,42.5c0,0.7-0.2,1.4-0.7,2L218.6,148.2z"/>
				<path d="M215.9,201.3c-0.6,0-1.2,0.2-1.6,0.6v0c1.7-1.2,2.3-2.5,2.8-6.2c0.5-4.1-1.2-21.6-3.6-41.1l5.2-6.4
					c2.8,22.9,4.8,44.6,4.3,48.1c-0.6,4.9-1.9,7.4-3.9,9.3c0-0.9-0.1-1.4-0.1-1.5C218.9,202.5,217.5,201.2,215.9,201.3z"/>
				<path d="M213.4,154.5l-19.3,23.6c-0.6,0.7-1.4,1.1-2.3,1.1c-0.7,0-1.3-0.2-1.9-0.7c-1.3-1.1-1.5-2.9-0.4-4.2l22.9-28
					C212.8,149.1,213.1,151.8,213.4,154.5z"/>
				<path d="M207.9,91.1c0.4,0.5,0.8,1.3,1.2,2.4c-1.6,1.5-3.2,2.9-4.9,4.1c-0.4-1.5-0.8-2.6-1.2-3.1c-0.9-1.2-0.7-2.9,0.4-3.9
					c0.1-0.1,0.2-0.2,0.3-0.3C205.1,89.4,207,89.8,207.9,91.1z"/>
				<path d="M206.8,67.3c1.2,2.2-0.2,7.2-3.2,10s-6.5-0.8-7.8-5.8s3-7.5,3-7.5s3.5-0.5,4.8,0S205.6,65,206.8,67.3z"/>
				<path d="M205.8,104.2c0.1,0.2,7.5,24.1,8.4,39.9l-1.8,2.2c-2.1-16.2-4.6-32.6-6.7-42.5h0C205.7,103.9,205.7,104.1,205.8,104.2z"
					/>
				<path d="M207.8,100.5c-1.4,0.4-2.3,1.9-2.1,3.3h0c-0.5-2.5-1-4.6-1.5-6.2c1.7-1.2,3.3-2.6,4.9-4.1c0.8,2.1,1.6,5.1,2.4,8.8
					C211,100.9,209.3,100,207.8,100.5z"/>
				<path d="M202.6,188.1c1.5,0.6,2.2,2.4,1.6,3.9c-0.5,1.1-1.6,1.8-2.8,1.8c-0.4,0-0.8-0.1-1.2-0.2l-47.6-20.4
					c-0.1-2.2-0.2-4.4-0.4-6.7L202.6,188.1z"/>
				<path d="M143.8,74.2c2.5,6.4,7.4,12,12.3,16.2c-0.3-0.2-0.7-0.4-1.1-0.5c-1.6-0.3-3.2,0.7-3.5,2.4c0,0.2-0.1,0.8-0.3,1.7
					c-5.1-4.6-10.2-10.6-12.9-17.6c-5.2-13-4.5-24.5,2.4-39.7c5.8-12.9,14.4-15.2,23.5-17.7c1.8-0.5,3.7-1,5.6-1.6
					c10.9-3.4,23-0.9,37.1,7.6c12.8,7.7,12.8,27.9,12.8,42.6c0,11.3-4.5,20-10.6,25.9c-0.4-1.1-0.8-1.9-1.2-2.4
					c-0.9-1.4-2.8-1.7-4.2-0.8c-0.1,0.1-0.2,0.2-0.3,0.3l0,0c5.7-5,10.2-12.7,10.2-23c0-13.3,0-31.4-9.9-37.4
					c-12.6-7.6-23.1-9.9-32.2-7c-2,0.6-4,1.2-5.9,1.7c-8.7,2.3-15,4-19.6,14.4C139.9,52.8,139.2,62.7,143.8,74.2z"/>
				<path d="M176.8,72.3c1.2,2.2-0.2,7.2-3.2,10s-6.5-0.8-7.8-5.8s3-7.5,3-7.5s3.5-0.5,4.8,0S175.6,70,176.8,72.3z"/>
				<path d="M156.6,90.8c3.3,2.8,6.5,4.9,9,6.3c3.1,0.4,20.4,2.7,29.5-1.2c2.8-1.2,5.6-2.9,8.2-5.2l0,0c-1.1,1-1.3,2.7-0.4,3.9
					c0.4,0.5,0.8,1.6,1.2,3.1c-2.2,1.5-4.4,2.8-6.7,3.7c-5,2.1-11.6,2.7-17.6,2.7c-8.1,0-15.2-1.1-15.7-1.2l-0.5-0.1l-0.4-0.2
					c-1.9-1-4.3-2.5-6.8-4.3c0.5-2.9,0.9-4.8,0.9-4.8C157.5,92.4,157.2,91.5,156.6,90.8z"/>
				<path d="M156.6,90.8c0.6,0.7,0.9,1.6,0.8,2.6c0,0.1-0.4,1.9-0.9,4.8c-0.2-0.2-0.5-0.4-0.8-0.6c-0.4-0.5-0.9-0.9-1.5-1.2
					c-1-0.8-2-1.7-3.1-2.6c0.2-1,0.3-1.5,0.3-1.7c0.3-1.6,1.9-2.7,3.5-2.4c0.4,0.1,0.8,0.2,1.1,0.5
					C156.2,90.5,156.4,90.6,156.6,90.8C156.6,90.8,156.6,90.8,156.6,90.8z"/>
				<path d="M156.6,90.8c-0.2-0.1-0.3-0.3-0.5-0.4C156.3,90.5,156.4,90.6,156.6,90.8z"/>
				<path d="M156.4,98.3c-0.1,0.5-0.2,1.1-0.3,1.7c0-0.1,0-0.1,0-0.2c0.1-0.8-0.1-1.5-0.5-2.1C155.9,97.9,156.2,98.1,156.4,98.3z"/>
				<path d="M154.3,199.2c1.3,1.5,4.9,5.4,9.3,5.8l0.6,0.1c36.4,3.5,43,1.2,44.1,0.4c1.3-0.9,2.5-1.6,3.6-2.2c1-0.6,1.7-1,2.4-1.4v0
					c-0.8,0.6-1.3,1.5-1.3,2.6c0,0.1,0.1,2,0.2,5.1c-0.5,0.3-1,0.6-1.5,1c-1.8,1.2-5.5,2.4-16.5,2.4c-7.1,0-17.1-0.5-31.5-1.9
					l-0.6-0.1c-3.6-0.3-6.7-2-9.1-3.8c0.2-4,0.4-6.5,0.4-6.6c0-0.4,0-0.9-0.2-1.3L154.3,199.2z"/>
				<path d="M155.7,97.7c-0.5-0.4-1-0.8-1.5-1.2C154.8,96.8,155.3,97.2,155.7,97.7z"/>
				<path d="M151.4,137.5c0.3-11.2,3.1-28.3,4.8-37.5C154.8,109.8,152.9,124.4,151.4,137.5z"/>
				<path d="M154.2,199.2c0.2,0.4,0.2,0.8,0.2,1.3c0,0.1-0.2,2.6-0.4,6.6c-3.1-2.3-4.9-4.9-5-5.1c-0.3-0.4-0.5-1-0.5-1.5
					c0,0,0-0.1,0-0.2c0-0.1,0-0.2,0-0.2c0.1-1.6,1.5-2.9,3.2-2.8C152.8,197.4,153.8,198.1,154.2,199.2z"/>
				<path d="M152.7,173.2c0.7,12,1.4,22.8,1.6,26l-0.1,0.1c-0.4-1.1-1.4-1.8-2.6-1.9c-1.7-0.1-3.1,1.1-3.2,2.8c0,0.1,0,0.1,0,0.2
					c-0.1-1.9-1-15.4-1.8-29.8L152.7,173.2z"/>
				<path d="M151.1,94c1,0.9,2,1.8,3.1,2.6c-0.2-0.1-0.4-0.1-0.6-0.1c-1.6-0.2-3,0.8-3.3,2.3C150.6,96.7,150.9,95.1,151.1,94z"/>
				<path d="M148.6,164.9l3.8,1.6c0.1,2.2,0.2,4.5,0.4,6.7l-6.2-2.6c-0.6-11.7-1.2-23.9-1.2-30.9c0-0.8,0-1.7,0.1-2.6
					c2.1-17.2,4.5-35.6,4.8-37.8c0-0.1,0-0.1,0-0.2c0-0.1,0-0.2,0.1-0.3c0.3-1.5,1.8-2.5,3.3-2.3c0.2,0,0.4,0.1,0.6,0.1
					c0.5,0.4,1,0.8,1.5,1.2c0.4,0.6,0.6,1.3,0.5,2.1c0,0.1,0,0.1,0,0.2c-1.7,9.2-4.4,26.3-4.8,37.5
					C149.9,149.3,148.8,159.9,148.6,164.9z"/>
				<path d="M152.3,166.5l-3.8-1.6c0.2-5,1.4-15.6,2.8-27.4c0,0.7,0,1.5,0,2.1C151.3,145.7,151.8,156,152.3,166.5z"/>
				<path d="M148.9,202c0.1,0.2,2,2.8,5,5.1c-1,16.5-3.4,59.6-2.6,76.4c0.6,12.1,0.4,18.7,0.2,26.2c-0.1,5.6-0.3,12-0.2,21.9
					c0.1,7.8,0.6,14.2,0.9,19.9c0.7,10.5,1.2,18.1-1.3,25.2c-0.4,1.2-1.6,2-2.8,2c-0.3,0-0.7,0-1-0.2c-1.6-0.5-2.4-2.3-1.8-3.8
					c2.1-5.9,1.6-12.6,0.9-22.8c-0.4-5.7-0.8-12.2-0.9-20.2c-0.2-10,0-16.4,0.2-22.1c0.2-7.4,0.4-13.9-0.2-25.8
					c-1-20.8,2.7-78.8,3-83.5c0,0.1,0,0.1,0,0.2C148.4,201,148.6,201.6,148.9,202z"/>
				<path d="M145.4,137c0.4-11.7,3.1-28.5,4.8-37.8C149.9,101.4,147.4,119.7,145.4,137z"/>
				<path d="M146.5,170.5l-2.2-0.9c-1.1-0.5-1.8-1.5-1.8-2.7c-0.1-3.9,1.3-16.6,2.9-29.9c0,0.9-0.1,1.8-0.1,2.6
					C145.3,146.6,145.9,158.8,146.5,170.5z"/>
				<path d="M118.8,375.4c0.7,8.3,0,12.6,0,12.8c-0.2,1.5-1.5,2.5-3,2.5c-0.2,0-0.3,0-0.5,0c-1.6-0.3-2.7-1.8-2.5-3.4
					c0,0,0.6-3.8,0-11.3c-0.4-5.3-0.3-13.3-0.2-22.6c0.1-5.2,0.2-11,0.2-17c0-11.7-1.7-26.4-3.3-40.5c-0.7-5.7-1.3-11.6-1.9-17.2
					c-1.6-15.7-3.3-55.1-3.9-69.1c0.6-0.4,1.2-0.7,1.7-1c1.6-0.9,3-1.8,4.2-2.8c0.4,8.8,2.3,55.1,4,72.3c0.6,5.5,1.2,11.4,1.9,17.1
					c1.7,14.3,3.4,29.2,3.4,41.2c0,6-0.1,11.9-0.2,17.1C118.5,362.5,118.4,370.4,118.8,375.4z"/>
				<path d="M113.4,190.2c-1-17.5-6.4-65.3-11.4-87.8c0,0.1,0.1,0.2,0.1,0.3c0.8,3.9,20.1,94.7,20.7,111.1l0.7,16.3
					c0.1,1.6-1.2,3.1-2.9,3.1c0,0-0.1,0-0.1,0c-1.6,0-2.9-1.3-3-2.9l-0.7-16.3C116.7,210.1,115.3,201.2,113.4,190.2z"/>
				<path d="M102,102.4c5,22.5,10.3,70.3,11.4,87.8c-5.7-32.3-16.5-83.3-17.1-86.1c0-0.1,0-0.1,0-0.1c-0.3-1.6,0.7-3.2,2.3-3.6
					C100.1,100.1,101.6,101,102,102.4z"/>
				<path d="M106.4,201.3c1.7,0,3,1.2,3.1,2.9c0,0.1,0,0.6,0.1,1.5c-1.2,1.1-2.6,1.9-4.2,2.8c-0.5,0.3-1.1,0.6-1.7,1
					c-0.1-3.1-0.2-5-0.2-5.1c0-1,0.5-2,1.3-2.6C105.2,201.5,105.8,201.3,106.4,201.3z"/>
				<path d="M96.2,104.1c0.6,2.8,11.4,53.8,17.1,86.1c0.2,3,0.2,5.2,0.1,6.1c-0.6,4.9-1.9,7.4-3.9,9.3c0-0.9-0.1-1.4-0.1-1.5
					c-0.1-1.7-1.5-2.9-3.1-2.9c-0.6,0-1.2,0.2-1.6,0.6v0c1.7-1.2,2.3-2.5,2.8-6.2C108.5,187.7,101.2,128,96.2,104.1L96.2,104.1z"/>
				<path d="M98.4,91.1c0.4,0.5,0.8,1.4,1.1,2.4c-1.5,1.5-3.2,2.9-4.9,4.1c-0.4-1.5-0.8-2.6-1.2-3.1c-0.9-1.2-0.7-2.9,0.4-3.9
					c0.1-0.1,0.2-0.2,0.3-0.3C95.6,89.4,97.5,89.8,98.4,91.1z"/>
				<path d="M96.2,104.1c-0.5-2.6-1.1-4.8-1.5-6.4c1.7-1.2,3.3-2.6,4.9-4.1c0.8,2.1,1.6,5.1,2.4,8.8c-0.5-1.4-2-2.3-3.5-2
					c-1.6,0.3-2.7,1.9-2.3,3.6C96.2,104,96.2,104,96.2,104.1L96.2,104.1z"/>
				<path d="M45.5,89.9c-1.6-0.3-3.2,0.7-3.5,2.4c0,0.2-0.1,0.8-0.3,1.7c-5.2-4.6-10.2-10.6-12.9-17.6c-5.1-13-4.5-24.5,2.4-39.7
					C37,23.8,45.5,21.5,54.6,19c1.8-0.5,3.7-1,5.6-1.6c10.9-3.4,23-0.9,37.1,7.6c12.8,7.7,12.8,27.9,12.8,42.6
					c0,11.3-4.5,20-10.6,26c-0.4-1.1-0.8-1.9-1.1-2.4c-0.9-1.4-2.8-1.7-4.2-0.8c-0.1,0.1-0.2,0.2-0.3,0.3l0,0
					c5.7-5,10.2-12.7,10.2-23c0-13.3,0-31.4-9.9-37.4c-12.6-7.6-23.1-9.9-32.2-7c-2,0.6-4,1.2-5.9,1.7c-8.7,2.3-15,4-19.6,14.4
					c-6.2,13.7-6.8,23.5-2.3,35c2.5,6.4,7.4,12,12.3,16.2C46.3,90.1,45.9,90,45.5,89.9z"/>
				<path d="M92,72.3c1.2,2.2-0.2,7.2-3.2,10s-6.5-0.8-7.8-5.8s3-7.5,3-7.5s3.5-0.5,4.8,0S90.8,70,92,72.3z"/>
				<path d="M62.4,72.3c1.2,2.2-0.2,7.2-3.2,10s-6.5-0.8-7.8-5.8s3-7.5,3-7.5s3.5-0.5,4.8,0S61.2,70,62.4,72.3z"/>
				<path d="M47.1,90.8c3.3,2.8,6.6,4.9,9,6.3c3.1,0.5,20.4,2.7,29.5-1.2c2.8-1.2,5.7-2.9,8.2-5.2l0,0c-1.1,1-1.3,2.7-0.4,3.9
					c0.4,0.5,0.8,1.6,1.2,3.1c-2.2,1.5-4.4,2.8-6.7,3.7c-5,2.1-11.6,2.7-17.7,2.7c-8.1,0-15.2-1.1-15.7-1.2l-0.5-0.1l-0.4-0.2
					c-1.9-1-4.3-2.5-6.8-4.3c0.5-2.9,0.9-4.8,0.9-4.8C48.1,92.4,47.7,91.5,47.1,90.8z"/>
				<path d="M47.1,90.8c0.6,0.7,1,1.7,0.8,2.6c0,0.1-0.4,1.9-0.9,4.8c-0.2-0.2-0.5-0.4-0.8-0.6c-0.3-0.5-0.8-0.9-1.5-1.1
					c0,0,0,0,0,0c-1-0.8-2-1.7-3-2.6c0.2-1,0.3-1.5,0.3-1.7c0.3-1.6,1.9-2.7,3.5-2.4c0.4,0.1,0.8,0.2,1.1,0.5
					C46.8,90.5,46.9,90.6,47.1,90.8C47.1,90.8,47.1,90.8,47.1,90.8z"/>
				<path d="M47.1,90.8c-0.2-0.1-0.3-0.3-0.5-0.4C46.8,90.5,46.9,90.6,47.1,90.8z"/>
				<path d="M46.2,97.7c0.3,0.2,0.5,0.4,0.8,0.6c-0.1,0.4-0.2,0.9-0.2,1.4C46.8,98.9,46.6,98.2,46.2,97.7z"/>
				<path d="M46.2,97.7c0.4,0.6,0.6,1.2,0.5,1.9c0,0.1,0,0.1,0,0.2c-0.7,3.9-1.6,9.2-2.4,14.9c0,0.2-0.1,0.4-0.1,0.7
					c-2.3,14-5.1,31.6-7.5,47.4c-0.5-9.1-0.8-17.8-0.8-23.2c0-6.9,1.1-16.3,2.3-25c0-0.1,0-0.1,0-0.2c1.3-8.1,2.3-13.8,2.5-15.3
					c0-0.1,0-0.2,0-0.2c0.3-1.6,1.8-2.8,3.4-2.5c0.2,0,0.4,0.1,0.5,0.1c0,0,0,0,0,0C45.2,96.9,45.7,97.3,46.2,97.7z"/>
				<path d="M46.7,99.8C46.7,99.8,46.7,99.8,46.7,99.8c-0.7,4.1-1.5,9.2-2.4,14.9C45.1,109.1,46,103.7,46.7,99.8z"/>
				<path d="M44.8,199.2c1.3,1.5,4.9,5.4,9.3,5.8l0.6,0.1c36.4,3.5,43,1.2,44.1,0.4c1.3-0.9,2.5-1.6,3.6-2.2c1-0.6,1.7-1,2.3-1.4v0
					c-0.8,0.6-1.3,1.5-1.3,2.6c0,0.1,0.1,2,0.2,5.1c-0.5,0.3-1,0.6-1.5,1c-1.8,1.2-5.5,2.4-16.5,2.4c-7.1,0-17.1-0.5-31.5-1.9
					l-0.6-0.1c-3.6-0.3-6.7-2-9.1-3.8c0.2-4,0.4-6.5,0.4-6.6c0-0.4,0-0.9-0.2-1.3L44.8,199.2z"/>
				<path d="M46.2,97.7c-0.5-0.4-1-0.8-1.5-1.1C45.3,96.8,45.8,97.2,46.2,97.7z"/>
				<path d="M44.7,199.2c0.2,0.4,0.2,0.8,0.2,1.3c0,0.1-0.2,2.6-0.4,6.6c-3.1-2.3-4.9-4.9-5-5.1c-0.3-0.4-0.5-1-0.5-1.5
					c0,0,0-0.1,0-0.2c0-0.1,0-0.2,0-0.2c0.1-1.6,1.5-2.9,3.2-2.8C43.3,197.4,44.3,198.1,44.7,199.2z"/>
				<path d="M42.1,197.3c-1.7-0.1-3.1,1.1-3.2,2.8c0,0.1,0,0.1,0,0.2c-0.2-2.3-1.4-20.6-2.2-37.4c2.4-15.8,5.2-33.5,7.5-47.4
					c-1.2,8.5-2.3,17.6-2.3,24.2c0,14.5,2.5,53.1,3,59.6l-0.1,0.1C44.3,198.1,43.3,197.4,42.1,197.3z"/>
				<path d="M44.2,96.4c-1.6-0.3-3.2,0.8-3.4,2.5c0.4-2.1,0.7-3.8,0.9-4.9c1,0.9,2,1.8,3,2.6C44.5,96.5,44.4,96.4,44.2,96.4z"/>
				<path d="M39.4,202c0.1,0.2,2,2.8,5,5.1c-1,16.5-3.4,59.6-2.6,76.4c0.6,12.1,0.4,18.7,0.2,26.2c-0.2,5.6-0.3,12-0.2,21.9
					c0.1,7.8,0.5,14.2,0.9,19.9c0.7,10.5,1.2,18.1-1.3,25.2c-0.4,1.2-1.6,2-2.8,2c-0.3,0-0.7,0-1-0.2c-1.6-0.5-2.4-2.3-1.8-3.8
					c2.1-5.9,1.6-12.6,0.9-22.8c-0.4-5.7-0.8-12.2-1-20.2c-0.2-10,0-16.4,0.2-22.1c0.2-7.4,0.4-13.9-0.2-25.8
					c-1-20.8,2.7-78.8,3-83.5c0,0.1,0,0.1,0,0.2C38.9,201,39.1,201.6,39.4,202z"/>
				<path d="M38.2,114.4c0.8-5.8,1.8-11.3,2.5-15.3C40.5,100.6,39.5,106.3,38.2,114.4z"/>
				<path d="M38.2,114.6c-1.3,8.6-2.3,18.1-2.3,25c0,5.5,0.3,14.1,0.8,23.2c-3,19.6-5.4,36.4-5.3,39.7c0.2,8.9,0,24.3,0,24.4
					c0,1.7-1.4,3-3,3c0,0,0,0,0,0c-1.7,0-3-1.4-3-3c0-0.2,0.2-15.4,0-24.2C25.2,195.7,33.7,142,38.2,114.6z"/>
			</g>
			<g>
			</g>
		</g>
	</g>
</g>
</svg>
