<?xml version="1.0" encoding="utf-8"?>
<!-- Generator: Adobe Illustrator 22.0.1, SVG Export Plug-In . SVG Version: 6.00 Build 0)  -->
<svg version="1.1" id="Layer_1" xmlns="http://www.w3.org/2000/svg" xmlns:xlink="http://www.w3.org/1999/xlink" x="0px" y="0px"
	 viewBox="0 0 166.2 164.4" style="enable-background:new 0 0 166.2 164.4;" xml:space="preserve">
<style type="text/css">
	.st0{enable-background:new    ;}
	.st1{fill:#5E5F5F;}
	.st2{fill:#FFFFFF;}
	.st3{fill:#364654;}
	.st4{fill:#E12D92;}
</style>
<g id="Layer_1_1_">
	<text transform="matrix(1 0 0 1 -469.3791 5800.2134)" class="st1" style="font-family:'Fresh-Marker'; font-size:50px;">logo</text>
	<text transform="matrix(1 0 0 1 -469.3791 5860.2134)" class="st1" style="font-family:'Fresh-Marker'; font-size:50px;">-stencil</text>
	<text transform="matrix(1 0 0 1 -469.3791 5920.2134)" class="st1" style="font-family:'Fresh-Marker'; font-size:50px;">-colourful?</text>
	<text transform="matrix(1 0 0 1 -469.3791 5980.2134)" class="st1" style="font-family:'Fresh-Marker'; font-size:50px;">-art</text>
	<text transform="matrix(1 0 0 1 -469.3791 6040.2134)" class="st1" style="font-family:'Fresh-Marker'; font-size:50px;">-artist signature</text>
	<text transform="matrix(1 0 0 1 -469.3791 6100.2134)" class="st1" style="font-family:'Fresh-Marker'; font-size:50px;">-city</text>
</g>
<g id="Layer_2_1_">
	<g>
		<polygon class="st2" points="79.5,41.8 79.5,14.6 98.1,14.6 98.1,48.7 		"/>
		<polygon class="st2" points="98.1,101.4 98.1,90.3 88.8,90.3 79.5,90.3 79.5,101.4 75.7,101.4 75.7,113.4 88.8,113.4 101.9,113.4 
			101.9,101.4 		"/>
		<g>
			<path class="st2" d="M156.3,98.9c-0.3,0-0.7,0-1-0.1l-146-18c-4.1-0.5-7.3-4-7.3-8.2V34.5c0-4.6,3.7-8.3,8.3-8.3
				c0.7,0,1.3,0.1,2,0.2l146,35.6c3.7,0.9,6.3,4.2,6.3,8v20.5C164.6,95.2,160.8,98.9,156.3,98.9z"/>
			<path class="st3" d="M10.2,27.5c0.6,0,1.1,0.1,1.7,0.2l146,35.6c3.2,0.8,5.4,3.6,5.4,6.8v20.5c0,3.9-3.2,7-7,7
				c-0.3,0-0.6,0-0.9-0.1l-146-18c-3.5-0.4-6.2-3.4-6.2-7v-38C3.2,30.6,6.5,27.5,10.2,27.5 M10.2,25L10.2,25c-5.2,0-9.5,4.3-9.5,9.5
				v38.1c0,4.8,3.6,8.9,8.4,9.5l146,18c0.4,0,0.8,0.1,1.2,0.1c5.2,0,9.5-4.3,9.5-9.5V70.1c0-4.4-3-8.2-7.3-9.3l-146-35.6
				C11.8,25.1,11,25,10.2,25L10.2,25z"/>
		</g>
		<g>
			<g>
				<path class="st3" d="M24.2,47.3c-0.1-0.3-0.3-0.6-0.6-1.1c-0.3-0.4-0.7-0.9-1.1-1.3S21.6,44,21,43.7c-0.5-0.4-1-0.6-1.6-0.7
					c-0.9-0.2-1.6-0.1-2.1,0.4s-0.7,1.4-0.7,2.7c0,0.8,0.1,1.4,0.3,2c0.2,0.6,0.4,1.1,0.8,1.5c0.3,0.5,0.7,0.9,1.3,1.4
					c0.5,0.4,1.1,0.9,1.7,1.4c0.9,0.7,1.6,1.4,2.3,2.1c0.7,0.7,1.3,1.6,1.8,2.6s0.9,2.1,1.1,3.4c0.3,1.3,0.4,2.8,0.4,4.4
					c0,1.9-0.2,3.3-0.5,4.4c-0.4,1-0.8,1.7-1.4,2.2s-1.3,0.7-2.1,0.8s-1.6,0.1-2.5,0c-1.3-0.2-2.6-0.5-3.9-1.1s-2.5-1.5-3.5-2.8
					c0.6-1.8,0.9-2.9,1.5-5.3c0.1,0.3,0.4,0.8,0.8,1.3c0.4,0.5,0.8,1.1,1.4,1.6c0.5,0.5,1.1,1,1.8,1.4c0.6,0.4,1.3,0.6,2,0.7
					c1.9,0.3,2.8-0.6,2.8-3c0-0.8-0.1-1.4-0.3-2c-0.2-0.6-0.5-1.1-0.9-1.6s-0.9-1-1.4-1.4c-0.6-0.5-1.2-1-1.9-1.6
					c-0.8-0.7-1.6-1.4-2.2-2.1c-0.6-0.7-1.1-1.6-1.5-2.6s-0.7-2-0.9-3.2s-0.3-2.5-0.3-4c0-1.9,0.2-3.5,0.5-4.6
					c0.3-1.2,0.8-1.9,1.4-2.4c0.6-0.5,1.3-0.7,2-0.8c0.8-0.1,1.6,0,2.5,0.3c1.2,0.3,2.4,0.8,3.4,1.5s1.9,1.5,2.7,2.5
					C25.1,44.3,24.8,45.2,24.2,47.3z"/>
				<path class="st3" d="M42,48.5c-2.3-0.5-3.4-0.8-5.6-1.3c0,9.6,0.1,20.9,0.1,26.9c-1.4-0.2-2-0.3-3.4-0.4c0-6-0.1-17.6-0.1-27.3
					c-2.3-0.5-3.4-0.8-5.6-1.3c0-2,0-2.9,0-4.1c5.8,1.5,8.8,2.2,14.7,3.7C42,45.8,42,46.6,42,48.5z"/>
				<path class="st3" d="M44.2,75.1c0-10,0-20-0.1-29.9c3.1,0.8,4.7,1.2,7.8,2c0.8,0.2,1.6,0.6,2.3,1.1s1.3,1.2,1.8,2.1
					c0.5,0.9,0.9,1.9,1.2,3.1c0.3,1.2,0.4,2.4,0.4,3.7c0,2.1-0.3,4-0.9,5.7c-0.6,1.7-1.3,2.8-2.3,3.5c1.6,5.3,2.4,7.8,4,10.7
					c-1.5-0.2-2.3-0.3-3.8-0.5c-1.4-2.5-2.1-4.7-3.6-9.4c-1.3-0.2-2-0.3-3.4-0.5c0,4.5,0,6.7,0,9C46.3,75.3,45.6,75.2,44.2,75.1z
					 M47.6,60.5c1.7,0.3,2.6,0.5,4.3,0.8c0.3,0.1,0.6,0,0.9-0.3c0.3-0.2,0.5-0.6,0.7-1c0.2-0.5,0.4-1,0.5-1.6s0.2-1.3,0.2-2.1
					s-0.1-1.5-0.2-2.1c-0.1-0.6-0.3-1.2-0.5-1.7s-0.5-0.8-0.8-1.1s-0.6-0.5-0.9-0.5c-1.7-0.4-2.5-0.6-4.2-1
					C47.6,53.5,47.6,55.9,47.6,60.5z"/>
				<path class="st3" d="M72.8,75.1c0,1.7,0,2.5-0.1,3.7c-4.9-0.6-7.3-1-12.1-1.6c0.1-7,0.1-21,0.1-27.9c4.8,1.2,7.3,1.8,12.1,3
					c0,1.2,0,1.9-0.1,3.6c-3.5-0.8-5.2-1.2-8.6-2.1c0,2.5,0,4,0,7.1c3,0.6,4.5,0.9,7.4,1.5c0,1.9,0,3,0,4.9c-3-0.5-4.4-0.8-7.4-1.3
					c0,3.4,0,5.1,0,7.8C67.6,74.3,69.3,74.6,72.8,75.1z"/>
				<path class="st3" d="M87.6,77.2c0,1.6-0.1,2.3-0.1,3.5c-4.9-0.6-7.3-1-12.1-1.6c0.2-6.9,0.2-19.2,0.4-26.1
					c4.8,1.2,7.3,1.8,12.1,3c0,1.2-0.1,1.9-0.1,3.5c-3.5-0.8-5.2-1.2-8.6-2.1c0,2.3-0.1,3.8-0.1,6.6c3,0.6,4.5,0.9,7.4,1.5
					c0,1.8-0.1,2.7-0.1,4.5c-3-0.5-4.4-0.8-7.4-1.3c0,3.1-0.1,4.7-0.1,7.2C82.4,76.4,84.1,76.7,87.6,77.2z"/>
				<path class="st3" d="M103.9,63.3c-2.3-0.5-3.4-0.8-5.6-1.3c-0.2,7.4-0.4,14.4-0.6,20c-1.4-0.2-2-0.3-3.4-0.4
					c0.2-5.7,0.3-12.9,0.6-20.4c-2.3-0.5-3.4-0.8-5.7-1.3c0-1.6,0.1-2.3,0.1-3.5c5.9,1.5,8.9,2.2,14.7,3.6
					C104,61.2,104,61.8,103.9,63.3z"/>
				<path class="st3" d="M115.8,62.9c1.2,0.3,1.8,0.4,3,0.7c2.3,7.4,3.5,14.9,5.9,22c-1.4-0.2-2.1-0.3-3.5-0.5
					c-0.6-1.8-0.9-2.8-1.4-5.1c-2.5-0.4-3.7-0.6-6.1-0.9c-0.7,2.1-1.1,3.1-1.8,4.8c-1.4-0.2-2.1-0.3-3.5-0.5
					C111.2,77,112.7,69,115.8,62.9z M119.2,77c-0.8-3.7-1.3-5.8-2.1-9.4c-1.1,3.1-1.7,5.1-2.8,8.6C116.2,76.4,117.2,76.6,119.2,77z"
					/>
				<path class="st3" d="M126.6,85.9c0.3-6.8,0.5-13.4,0.8-20.2c3.1,0.8,4.6,1.1,7.7,1.9c0.8,0.2,1.5,0.5,2.2,1s1.2,1.1,1.7,1.8
					c0.5,0.7,0.8,1.4,1.1,2.2c0.3,0.8,0.4,1.6,0.3,2.4c0,1.3-0.4,2.4-0.9,3.3c-0.6,0.9-1.4,1.6-2.4,1.9c1.5,3.3,2.3,4.8,3.8,7.6
					c-1.5-0.2-2.3-0.3-3.9-0.5c-1.4-2.5-2-3.9-3.4-6.8c-1.3-0.2-2-0.3-3.4-0.5c-0.1,2.8-0.1,4.2-0.2,6.4
					C128.6,86.2,127.9,86.1,126.6,85.9z M130.4,76.3c1.7,0.3,2.6,0.5,4.3,0.8c0.3,0.1,0.6,0,0.9-0.1c0.3-0.1,0.5-0.3,0.7-0.6
					c0.2-0.3,0.4-0.6,0.5-0.9c0.1-0.4,0.2-0.8,0.2-1.2c0-0.5,0-0.9-0.2-1.3c-0.1-0.4-0.3-0.8-0.5-1.1c-0.2-0.3-0.5-0.6-0.7-0.8
					c-0.3-0.2-0.6-0.4-0.9-0.4c-1.6-0.4-2.5-0.6-4.1-1C130.5,72.2,130.5,73.6,130.4,76.3z"/>
				<path class="st3" d="M156.1,75.6c-2.2-0.5-3.3-0.8-5.5-1.3c-0.1,5.9-0.1,9.1-0.2,14.8c-1.4-0.2-2.1-0.3-3.4-0.5
					c0.1-5.7,0.2-9.1,0.3-15.1c-2.2-0.5-3.3-0.8-5.5-1.3c0-1.3,0.1-1.9,0.1-3c5.7,1.4,8.6,2.1,14.2,3.4
					C156.1,73.9,156.1,74.4,156.1,75.6z"/>
			</g>
		</g>
		<rect x="90.8" y="95.1" class="st3" width="2.7" height="6"/>
		<g>
			<polygon class="st2" points="75.7,116.6 75.7,128.6 79.5,128.6 79.5,162.3 79.5,164.6 98.1,164.6 98.1,128.6 101.9,128.6 
				101.9,116.6 			"/>
		</g>
		<rect x="90.8" y="28.6" class="st3" width="2.7" height="13.6"/>
		<path class="st4" d="M98,139.8"/>
		<path class="st2" d="M93.6,5.4c-0.6-2.2-2.5-3.8-4.9-3.8s-4.3,1.6-4.9,3.8c-4.9,1.9-8.3,6.7-8.3,12.2c0,7.3,5.9,13.2,13.2,13.2
			c7.3,0,13.2-5.9,13.2-13.2C102,12.1,98.5,7.3,93.6,5.4z"/>
		<ellipse class="st3" cx="92" cy="11.1" rx="3.9" ry="2.5"/>
		<polygon class="st3" points="90.8,128.9 90.8,163.7 90.8,164.6 93.5,164.6 93.5,164 93.5,163.7 93.5,128.9 		"/>
	</g>
</g>
<g id="Layer_3">
</g>
<g id="Layer_4">
</g>
</svg>
