<?xml version="1.0" encoding="utf-8"?>
<!-- Generator: Adobe Illustrator 22.0.1, SVG Export Plug-In . SVG Version: 6.00 Build 0)  -->
<svg version="1.1" xmlns="http://www.w3.org/2000/svg" xmlns:xlink="http://www.w3.org/1999/xlink" x="0px" y="0px"
	 viewBox="0 0 298.4 252.3" style="enable-background:new 0 0 298.4 252.3;" xml:space="preserve">
<style type="text/css">
	.st0{fill:#05BDC0;}
	.st1{fill:#2C2D3A;}
	.st2{fill:#2A7D7A;}
	.st3{fill:#003B4E;}
	.st4{fill:#0C5568;}
	.st5{fill:#ECE2D3;}
	.st6{fill:#4F686B;}
	.st7{fill:#08566A;}
	.st8{fill:#2C3536;}
	.st9{fill:#01D497;}
	.st10{fill:#ECFBE6;}
	.st11{fill:none;stroke:#384654;stroke-linecap:round;stroke-linejoin:round;stroke-miterlimit:10;}
</style>
<g id="Layer_1">
</g>
<g id="Layer_2">
</g>
<g id="Layer_3">
	<path class="st0" d="M292.2,160.6c0.2,10.2-3.2,9.2-11,15.2s-20.8,4-24.5,5c-1.7,0.5-3.5,0.6-5.5,0.8c-2.5,0.3-5.3,0.6-8.8,1.7
		c-6.2,2-13.8,8.5-17.2,12.5s-10.8,14.8-12.5,15.2s-0.5-1.2-1.8-3.2s-4.5,0.2-10,4.8s-5.8,6.2-13.2,11c-4.5,2.9-8.7,4.4-11.3,5.1
		c-1.7,0.5-2.7,0.7-2.7,0.7s-9.2,5-13.2,6.5s-4,5.8-7.2,8s-8.8,4.2-13.8,3.8s-4.8-6.5-11.2-8.2s-5-2.8-8.5-8.5s-11.2-11-17-15.5
		s-5.8-7.2-7-10.5s-5.5-7.5-10.5-7.8c-0.5,0-1-0.1-1.5-0.2c-0.2,0-0.4-0.1-0.5-0.1c-0.2,0-0.4-0.1-0.6-0.2c-0.2-0.1-0.4-0.2-0.6-0.2
		c-0.2-0.1-0.4-0.2-0.6-0.3c-0.4-0.2-0.7-0.4-1-0.6c-0.2-0.1-0.3-0.3-0.5-0.4c-0.1-0.1-0.2-0.2-0.3-0.3c-0.1-0.1-0.2-0.2-0.3-0.3
		c-0.1-0.1-0.2-0.2-0.3-0.3c-0.5-0.6-0.7-1-0.7-1c-0.1-0.4-0.3-1.1-0.6-1.9c-0.2-0.5-0.4-1.1-0.7-1.7c-0.2,0-1.9,0.2-4.5,0.5
		c-1.4,0.1-3.1,0.3-4.9,0.5c-4.2,0.4-9.1,0.8-12.7,0.9c-1.8,0.1-3.2,0.1-4.1,0c-4.7-0.3-18.5-1.8-26.3-8.3s-12.2-10-14.8-14.7
		c-2.7-4.7-4-5.2-3.3-10.2c0.8-5,2.6-9.8,5.8-4.8c3.2,5,5.8,11,11,14.2c3.2,2,5.3,2.6,7.8,3c1.2,0.2,2.6,0.4,4.2,0.6
		c0.3,0,0.6,0.1,1,0.2c2.6,0.5,5.8,1.2,8.8,1.6c3.5,0.6,6.9,0.9,8.7,0.4c3.5-1,6.2-3.2,6.2-3.2c-2-0.6-3.6-0.9-6.2-2.7
		c-1.6-1.1-3.1-2.5-4.3-3.9c-0.3-0.4-0.6-0.7-0.9-1.1c-1.8-2.1-2.9-4-2.9-4.4l-0.1-0.2c-1.8-0.5-3.8-1-5.7-1.5
		c-0.5-0.1-1-0.3-1.5-0.4c-3.5-1-6.8-2-9.4-3.2c-0.1,0-0.2-0.1-0.3-0.1c-6-2.7-17.8-13.3-20.2-15.7c-2.3-2.3-2.8-5.3,0-6.5
		c2.8-1.2,6.3,2.2,6.3,2.2s3.3,0.7,13,4.8c2.6,1.1,6.8,1.5,11.5,1.4c-0.4-0.2-0.8-0.7-1.2-1.5c-0.6-1.4-1.8-6.8-2.5-12.2
		c-0.5-3.3-0.8-6.7-0.8-9.1c0-6.3,1.7-12.3,7.2-21.2c4.5-7.1,10-10.5,16.3-14.7c1.5-1,3-2,4.6-3.2c8.2-6,33.2-21.5,34.7-23.7
		s2.5-5,2.5-7.2c0-2.2-1.5-6.5-2.5-8.8S94.2,27,93.7,24.8c-0.5-2.2-3.8-7-7-9s-2.3-4-1.3-6.3c1-2.3,4.3-2.7,8-3.3
		c3.7-0.7,5.5,1.7,9,2.7s3,1.8,4,5.2c1,3.3-0.7,4.8,0,7.3c0.7,2.5,3.7,6.5,7.3,12s3.8,16.8,1.5,23c-2.3,6.2-15.3,14.7-23.2,19.5
		c-1.5,0.9-3.1,1.8-4.7,2.7h0c-6.7,3.6-13.5,6.7-16.9,11c-4.2,5.3-4,11.5-3.7,20.3c0.3,8.5,13.1,12.9,14.4,14.1
		c7.2-0.5,15.8-2.7,19.7-4.8c6.3-3.4,17.6-6.3,18.3-6.5c0,0,0,0,0,0c1.2-0.9,2.3-1.7,3.3-2.4c4.5-3.3,13.7-5.2,13.7-5.2
		c0.2-0.2,0.5-0.4,0.8-0.6c3.2-2.7,6.4-2.9,8.3-2.7c1,0.1,1.6,0.3,1.6,0.3c1-0.9,4.7-2.4,8.8-3.9c2.2-0.8,3.6-0.2,4.6,0.7
		c0.9,0.8,1.4,1.8,1.5,2c0.2,0.2,4.2,5,4.5,5.3c0-0.5,11.4,0.3,13.7,0c2.1-0.2,7.1-0.8,10.1-2c0.3-0.1,0.5-0.2,0.8-0.4
		c2.8-1.5,6.1,1.8,6.1,1.8s5-0.8,6.8-1.8c1.8-1.1,2.5-1,6.8-1.7c4.2-0.8,5.8,3.5,5.8,3.5s1.8-0.2,5.5-0.5s11-3.2,16.2-3
		s6.2,3,10.8,5.5s13,7,19.2,11.2s4.8,4,5.5,7.5s-3,3.2-6.8,4.5c-1.5,0.5-3.5,2.1-5.2,3.8c-2.5,2.4-4.5,5-4.5,5s5.2,1,12,1.5
		c2,0.1,4.3,0.3,6.7,0.5c5.4,0.4,10.9,1.3,14.1,4.3C294.2,149.9,291.9,150.4,292.2,160.6z"/>
	<path class="st1" d="M141.5,115.3c0,0,1,0.8,3.5,3.4s4.4,4,6.2,3.3c1.8-0.7,3.7-1,2.6-2.5c-1.1-1.5-1.8-1.9-3.5-3.2
		c-1.8-1.3-1.6-1.2-2.5-2.5c-0.9-1.3-1.1-1.2-1.6-2.8c-0.4-1.6-0.2-2.7-0.2-2.7l-4,1.8L141.5,115.3z"/>
	<path class="st1" d="M141.4,114.3c0,0,0.7-3.1,3-4.6c2.2-1.5,3.2-3.5,6.5-2.4c3.3,1.1,5.1,0.9,5.2,2.8c0.2,1.9,0.1,3.9,1,3.7
		c1-0.3-0.4-3.8,0-4.1c0.4-0.3,0.8-3.4,0.5-3.8s-1.5-3.2-3.7-3.2s-4.5,0.5-5.8,1.4c-1.2,0.9-5,3.1-5.2,3.5s-1.8,3-1.6,3.2
		S141.4,114.3,141.4,114.3z"/>
	<path class="st2" d="M275.6,141.3c-3.4,3.6-7,7.5-7.6,8c-1.2,1-47.2,13.5-47.2,13.5l-22.7,1.8l-0.9-5.2c0.3-0.3,0.6-0.6,0.9-0.9
		c2.8-2.8,5.3-4.9,5.8-5.1c1.2-0.5,11.2-11.8,12-14c0.1-0.3,0.1-0.6,0.2-0.9c0.1-2.1-1.2-4.5,3.3-5.8c2.1-0.6,3.9-1,5.4-1.3
		c2.3-0.5,3.8-0.7,3.8-0.7c-1-1-5.1-10-5.1-10c0.1-2.7-2.6-0.7-4.1-2.8c-0.8-1.2-2-2.8-3-4.1c-0.8-1-1.6-1.8-2.1-1.9
		c-1.2-0.3-8.7,0.3-14.3-1.7c-3-1-6.9-3.8-9.9-6.2c0.3-0.1,0.5-0.2,0.8-0.4c2.8-1.5,6.1,1.8,6.1,1.8s5-0.8,6.8-1.8
		c1.8-1.1,2.5-1,6.8-1.7c4.2-0.8,5.8,3.5,5.8,3.5s1.8-0.2,5.5-0.5s11-3.2,16.2-3s6.2,3,10.8,5.5s13,7,19.2,11.2s4.8,4,5.5,7.5
		s-3,3.2-6.8,4.5c-1.5,0.5-3.5,2.1-5.2,3.8c-2.5,2.4-4.5,5-4.5,5s5.2,1,12,1.5C271,141,273.3,141.2,275.6,141.3z"/>
	<path class="st3" d="M292.2,160.6c0.2,10.2-3.2,9.2-11,15.2s-20.8,4-24.5,5c-1.7,0.5-3.5,0.6-5.5,0.8c0.6-4,2.2-8.3,3-9.5
		c1.3-2.2,3.2-5,0-10.2c-3.2-5.2-11.7,1.8-18.2,5.3s-19.3,11-34,14c-14.7,3-22.7-2.2-22.7-2.2l-2.6-2.3c6.1,0.2,9-1.2,11.2-6
		c0.5-1.1,1.4-2.5,2.5-3.9c0.2-0.2,0.4-0.5,0.6-0.7c0.2-0.2,0.4-0.5,0.6-0.8c0.6-0.8,1.3-1.5,2-2.3c0.2-0.2,0.5-0.5,0.7-0.8
		c0.5-0.5,1-1,1.4-1.5c0.5-0.5,0.9-1,1.4-1.5c0.3-0.3,0.6-0.6,0.9-0.9c0,0,5.5,3.9,9,0c2.2-2.5,3.5-5.2,4.8-7.5c0,0,2.1,2.9,11.7,0
		c4.6-1.4,7.9-3.3,10.1-5.2c0.3,0,4.2-0.5,9.4-1.9c5.5-1.5,13.7-4.5,13.7-4.5s5.2,1,12,1.5c2,0.2,4.3,0.3,6.7,0.5
		c5.4,0.4,10.9,1.3,14.1,4.3C294.2,149.9,291.9,150.4,292.2,160.6z"/>
	<path class="st4" d="M173.7,229.4c0,0-9.2,5-13.2,6.5s-4,5.8-7.2,8s-8.8,4.2-13.8,3.8s-4.8-6.5-11.2-8.2s-5-2.8-8.5-8.5
		s-11.2-11-17-15.5s-5.8-7.2-7-10.5s-5.5-7.5-10.5-7.8c-0.5,0-1-0.1-1.5-0.2c-0.2,0-0.4-0.1-0.5-0.1c-0.2,0-0.4-0.1-0.6-0.2
		c-0.2-0.1-0.4-0.2-0.6-0.2c-0.2-0.1-0.4-0.2-0.6-0.3c-0.4-0.2-0.7-0.4-1-0.6c-0.2-0.1-0.3-0.3-0.5-0.4c-0.1-0.1-0.2-0.2-0.3-0.3
		c-0.1-0.1-0.2-0.2-0.3-0.3c-0.1-0.1-0.2-0.2-0.3-0.3c-0.5-0.6-0.7-1-0.7-1c-0.1-0.4-0.3-1.1-0.6-1.9c-0.2-0.5-0.4-1.1-0.7-1.7
		c-0.2,0-1.9,0.2-4.5,0.5c-1.4,0.1-3.1,0.3-4.9,0.5c-4.2,0.4-9.1,0.8-12.7,0.9l-4.2-7.8l-2.8-5.1l-3-5.5c3.5,0.6,6.9,0.9,8.7,0.4
		c3.5-1,6.2-3.2,6.2-3.2c-2-0.6-3.6-0.9-6.2-2.7c-1.6-1.1-3.1-2.5-4.3-3.9c-0.3-0.4-0.6-0.7-0.9-1.1c-1.8-2.1-2.9-4-2.9-4.4
		l-0.1-0.2c-1.8-0.5-3.8-1-5.7-1.5l0.2-1.8l0.4-2.8c0,0,0,0,0,0l1.1,0.2c0,0,0,0,0,0l10.9,2.2c0,0,0,0,0,0l9,1.8l3.2,0.6
		c0,0,0,0,0,0l3.9,0.8c0,0,1.5,1.5,3.5,3.5c-1.3,0.2-2.7,0.4-4.2,0.6c-0.3,0.1-0.7,0.1-1,0.2l1.8,0.3c0,0-0.8,2.8,1.5,6.6
		c2.3,3.9,4.2,7.3,7.7,7.9c3.5,0.6,6-1.7,8.7-3c0.2-0.1,0.3-0.2,0.5-0.3c0.5-0.3,1-0.7,1.5-1.1c0.2-0.1,0.3-0.3,0.5-0.4
		c1.5-1.4,2.7-3,2.8-3.2c0,0,0,0,0,0c0,0.3,2.1,0,4.4-0.6c0.7-0.2,1.4-0.4,2-0.6c0.3-0.1,0.5-0.2,0.8-0.3c0.7-0.2,1.3-0.5,1.8-0.8
		c2.7-1.7,5.7-4,11.7-8.9s9.2,0,12.7,0s6.8-2.7,9.8-5.3c2.9-2.7,3.1-4.5,2.6-8.8c-0.5-4.3-1.8-4-2.5-6.3c-0.7-2.3,3-2,6.8-5.2
		c3.8-3.2,6.7-2.6,11.8-2.5s6.7,4.1,7,5.1c0,0,0,1-0.3,2.3c-0.5,0.3-0.9,0.6-1,0.8c-0.8,1.1-3.5,3.4-7.5,5.1s-5.5,2.5-8.6,4.5
		c-3.1,2-10.9,11.9-11.7,14.1c-0.9,2.2,2.1,1.8,6.1,1s7.8-1.6,8.8-2s0.6,2.6,0.4,5c-0.2,2.4-6.5,3.5-10.6,4.3
		c-4,0.9-15.6,9.5-18.7,13.2c-3.1,3.6,0.1,8.1,2.7,12.5c2.6,4.4,8.5,2,12.1,4.5s8.2,9.5,9.6,10.9c1.4,1.4,3.6,1,5.2-0.4
		c0.6-0.5,1.2-1.3,1.9-2.2l0.5,0.8c2.5,1.2,5.8,3.8,10.5,6.2s4.5,4.8,7,7.8S173.7,229.4,173.7,229.4z"/>
	<path class="st5" d="M77.1,189.6c-0.2,0-1.9,0.2-4.5,0.5c-1.4,0.1-3.1,0.3-4.9,0.5c-4.2,0.4-9.1,0.8-12.7,0.9
		c-1.8,0.1-3.2,0.1-4.1,0c-4.7-0.3-18.5-1.8-26.3-8.3s-12.2-10-14.8-14.7c-2.7-4.7-4-5.2-3.3-10.2c0.8-5,2.6-9.8,5.8-4.8
		c3.2,5,5.8,11,11,14.2c3.2,2,5.3,2.6,7.8,3c1.2,0.2,2.6,0.4,4.2,0.6c0.3,0,0.6,0.1,1,0.2c2.6,0.5,5.8,1.2,8.8,1.6
		c3.5,0.6,6.9,0.9,8.7,0.4c3.5-1,6.2-3.2,6.2-3.2c1.3,0.4,2.7,1,4.6,2.3c4.8,3.3,7.2,3.2,8.3,8C73,180.6,75.5,185.8,77.1,189.6z"/>
	<path class="st5" d="M80,155.6c0.1,4.3-2.5,4.8-7.8,5.5c-1.3,0.2-2.7,0.4-4.2,0.6c-0.3,0.1-0.7,0.1-1,0.2c-2.1,0.3-3.7,0.4-5.1,0.3
		c-2.1-0.1-3.8-0.6-5.7-1.3c-1.3-0.4-2.7-0.9-4.5-1.3c-1.2-0.3-2.6-0.6-4-1l0,0c-0.5-0.1-1-0.2-1.6-0.4c-0.2,0-0.4-0.1-0.5-0.1
		c-1.8-0.5-3.8-1-5.7-1.5c-0.5-0.1-1-0.3-1.5-0.4c-3.5-1-6.8-2-9.4-3.2c-0.1,0-0.2-0.1-0.3-0.1c-6-2.7-17.8-13.3-20.2-15.7
		c-2.3-2.3-2.8-5.3,0-6.5c2.8-1.2,6.3,2.2,6.3,2.2s3.3,0.7,13,4.8c2.6,1.1,6.8,1.5,11.5,1.4c7.9-0.2,17.4-1.5,23.8-2.5
		c1.5-0.2,2.9-0.5,4.1-0.6c1.8-0.3,3-0.4,3.4-0.4c2.5,0.2,3.7,3.7,6.8,8.5c2.8,4.3,2.5,5.8,2.5,9.8C80,154.5,80,155,80,155.6z"/>
	<path class="st6" d="M80,155.6c0.1,4.3-2.5,4.8-7.8,5.5c-1.3,0.2-2.7,0.4-4.2,0.6c-0.3,0.1-0.7,0.1-1,0.2c-2.1,0.3-3.7,0.4-5.1,0.3
		c-2.1-0.1-3.8-0.6-5.7-1.3c-1.3-0.4-2.7-0.9-4.5-1.3c-1.2-0.3-2.6-0.6-4-1l0,0c-0.5-0.1-1-0.2-1.6-0.4c-0.2,0-0.4-0.1-0.5-0.1
		c-1.8-0.5-3.8-1-5.7-1.5c-0.5-0.1-1-0.3-1.5-0.4c-3.5-1-6.8-2-9.4-3.2c0.7-0.5,1.8-1.1,3.2-1.7c2.8-1.3,6.2,0.1,8.3,0.7
		c0,0,0,0,0,0c0.4,0.1,0.8,0.2,1.1,0.2c0,0,0,0,0,0c0.1,0,0.1,0,0.2,0c1.7,0,5.4,0.5,5.4,0.5s2.8,0.8,5.3,1.7c0,0,0,0,0,0
		c1.7,0.6,3.4,1.2,4,1.5c0.4,0.2,1.3,0.5,2.5,0.6c1.6,0.2,3.6,0.4,5.7,0.3c0,0,0,0,0,0c2.1-0.1,4.3-0.3,5.9-1c1-0.4,1.8-0.7,2.3-1.1
		c1.9-1.3,1.5-2.9,1.9-6c0.5-4-4-7.7-4.2-8.2l-3.4-4.6c1.8-0.3,3-0.4,3.4-0.4c2.5,0.2,3.7,3.7,6.8,8.5c2.8,4.3,2.5,5.8,2.5,9.8
		C80,154.5,80,155,80,155.6z"/>
	<path class="st6" d="M77.1,189.6c-0.2,0-1.9,0.2-4.5,0.5c-2.4-0.7-4.9-1.5-7-2.1c-1.8-0.5-3.3-1-4.3-1.1c-3.9-0.7-6.6-3.1-10.5-3.2
		c-0.1,0-0.1,0-0.2,0c-4,0-11.8-3-16.5-7.7c-1.9-1.9-2.7-3.8-3-5.3c1.2,0.2,2.6,0.4,4.2,0.6c0.3,0,0.6,0.1,1,0.2
		c2.6,0.5,5.8,1.2,8.8,1.6c3.5,0.6,6.9,0.9,8.7,0.4c3.5-1,6.2-3.2,6.2-3.2c1.3,0.4,2.7,1,4.6,2.3c4.8,3.3,7.2,3.2,8.3,8
		C73,180.6,75.5,185.8,77.1,189.6z"/>
	<path class="st7" d="M161.6,108.2c-0.2,0-0.5-0.1-0.9,0c-0.3,0-0.5,0.5-0.7,1.1c-0.2,0.7-1.3,0.7-1.5,0c-0.3-1.3-0.7-2.6-0.7-2.9
		c0-0.1,0-0.2-0.1-0.3c0-0.1-0.1-0.1-0.1-0.2c-0.6-0.9-2.3-2.1-4.9-2.2c-3.2-0.2-4.3,1.8-8.1,4.6c-0.6,0.4-1.1,0.9-1.4,1.4
		c-0.7,0.9-1.2,2-1.4,2.9c-0.1,0.5,0.2,1,0.1,1.4c-0.1,0.6-0.4,1.1-0.4,1.4l-0.1-1l-0.5-5.7l0.9-1.5l3.5-5.6c1,0.1,1.6,0.3,1.6,0.3
		c1-0.9,4.7-2.4,8.8-3.9c2.2-0.8,3.6-0.2,4.6,0.7c0,0-3.3,1.3-2.3,3.1C158.8,103.2,160.3,106.3,161.6,108.2z"/>
	<circle class="st8" cx="149.6" cy="109.7" r="0.9"/>
	<path class="st9" d="M115.2,56.3c-2.3,6.2-15.3,14.7-23.2,19.5c-1.5,0.9-3.1,1.8-4.7,2.7h0c-1.7-0.9-6.8-0.6-11.5,1.9
		c-4.6,2.5-10.4,3.8-15.1,2c-1.4-0.5-2.1-1.2-2.4-1.9c1.5-1,3-2,4.6-3.2c8.2-6,33.2-21.5,34.7-23.7s2.5-5,2.5-7.2
		c0-2.2-1.5-6.5-2.5-8.8S94.2,27,93.7,24.8c-0.5-2.2-3.8-7-7-9s-2.3-4-1.3-6.3c1-2.3,4.3-2.7,8-3.3c3.7-0.7,5.5,1.7,9,2.7
		s3,1.8,4,5.2c1,3.3-0.7,4.8,0,7.3c0.7,2.5,3.7,6.5,7.3,12S117.5,50.1,115.2,56.3z"/>
	<path class="st10" d="M103.1,21.5c0,0-2.3,0.5-1.8,2.2c0.5,1.7,1.2,1.5,2.7,3.5s2.5,2.2,3.3,5c0.8,2.8,3.6,3.4,4.2,4.8
		s0.4,2.5,0.8,1.8s-0.4-2.1-0.8-2.4s-1.8-1.7-2.2-2.6s-0.6-1.1-1-2.1s-1.6-1.9-1.5-3.1s-2.7-4.4-2.8-5s0.2-0.9-0.1-1.3
		S103.1,21.5,103.1,21.5z"/>
	<path class="st0" d="M216.5,113.8c0,0,2.6,4.2,3.6,4.7s2.7,0.3,3.9,1.2s1.6,1,1.8,2.6c0.2,1.6,0,1.7,1.1,3c1.1,1.3,1.8,0.6,2.6,2.1
		c0.8,1.6,2,1.8,0.8,2.4c-1.2,0.6,0,0.6-1.7,0.8c-1.7,0.3-4.3,0-4.3,0l-2.9-3.1l-5.9-11.6L216.5,113.8z"/>
	<path class="st11" d="M228.7,130.6c0,0-1.5,0.2-3.8,0.7c-1.5,0.3-3.4,0.7-5.4,1.3c-4.6,1.3-3.3,3.8-3.4,5.9c0,0.3-0.1,0.6-0.1,0.9
		c-0.8,2.2-10.8,13.5-12,14c-0.5,0.2-3,2.3-5.8,5.1c-0.3,0.3-0.6,0.6-0.9,0.9c-0.5,0.5-1,1-1.4,1.5c-0.5,0.5-1,1-1.4,1.5
		c-0.2,0.2-0.5,0.5-0.7,0.8c-0.7,0.8-1.4,1.6-2,2.3c-0.2,0.3-0.4,0.5-0.6,0.8c-0.2,0.2-0.4,0.5-0.6,0.7c-1.1,1.5-2,2.8-2.5,3.9
		c-2.2,4.8-5.1,6.2-11.2,5.9c-0.9,0-2-0.1-3.1-0.2c-8.2-0.8-8.5-10.8-8.5-11.5"/>
	<path class="st11" d="M198.1,158.5c0,0,5.6,3.9,9.1,0c2.2-2.5,3.5-5.2,4.8-7.5c0.7-1.3,1.4-2.5,2.2-3.4c2.2-2.5,4.2-1.5,6.5-5.2
		c0.9-1.5,1.7-3.6,2.4-5.5c1.1-2.9,1.8-5.6,1.8-5.6"/>
	<path class="st11" d="M212,151c0,0,2.1,2.9,11.6,0c4.6-1.4,7.9-3.3,10.1-5.2c2.4-2.2,3.6-4.4,3.7-6.4c0.1-2.2,1.7-4.6,2.9-6.2
		c0.9-1.1,1.6-1.9,1.6-1.9"/>
	<path class="st0" d="M204.1,110.1c0,0,1.5,1.2,2.5,1.3c1,0.1,3.6,0.2,5.4,0.2c1.9,0.1,1.7,1.6,1.7,1.6h-11.9c0,0-8.7-4.6-8.9-4.6
		c-0.2,0-4.1-4.2-4.1-4.2l2.1-0.8c0,0,1-0.7,2.2-0.3c1.2,0.4,3.9,2.2,3.9,2.2l2.1,2.2l2.7,1.8L204.1,110.1z"/>
	<path class="st11" d="M233.7,145.8C233.7,145.8,233.7,145.8,233.7,145.8c0.3,0,4.2-0.4,9.5-1.9c5.5-1.5,13.7-4.5,13.7-4.5
		s5.2,1,12,1.5c2,0.2,4.3,0.3,6.7,0.4c5.4,0.4,10.9,1.3,14.1,4.3c4.5,4.2,2.2,4.8,2.5,15s-3.2,9.2-11,15.2s-20.8,4-24.5,5
		c-1.7,0.4-3.5,0.6-5.5,0.8c-2.5,0.3-5.3,0.6-8.8,1.7c-6.2,2-13.8,8.5-17.2,12.5s-10.8,14.8-12.5,15.2s-0.5-1.2-1.8-3.2
		s-4.5,0.2-10,4.8s-5.8,6.2-13.2,11c-1.2,0.8-2.4,1.4-3.5,2c-3.1,1.6-5.9,2.6-7.8,3.1c-1.7,0.5-2.7,0.6-2.7,0.6"/>
	<path class="st11" d="M256.9,139.4c0,0,2.1-2.6,4.5-5c1.7-1.7,3.7-3.3,5.2-3.8c3.8-1.2,7.5-1,6.8-4.5s0.8-3.2-5.5-7.5
		s-14.7-8.8-19.2-11.2s-5.5-5.2-10.8-5.5s-12.5,2.8-16.2,3s-5.5,0.5-5.5,0.5s-1.5,3.5-2.5,4.5"/>
	<path class="st7" d="M141.5,115.3c0,0-0.5-0.4-0.6-2s-0.4-2.5-0.3-3.2c0.1-0.7,0.5-1.8,0.5-1.8h0.9l0.1,1.6L141.5,115.3z"/>
	<path class="st11" d="M203.7,117.6c0,0,12.2-3,15-5s9.8-4,14.4-4s5.6,2,8.8,4.5s14,4.7,17,7.5c3,2.8,5,2.8,4.2,5s-5.2,3.8-5.2,3.8"
		/>
	<path class="st11" d="M203.7,110.1c0,0-4.2-2.2-6.8-4.8c0,0,5-0.8,6.8-1.8c1.8-1.1,2.5-1,6.8-1.7c4.2-0.8,5.8,3.5,5.8,3.5"/>
	<path class="st11" d="M178.5,116.3c0,0-11.1-8.7-12.2-10.3c0,0,0,0,0,0c0-0.5,11.4,0.3,13.7,0c2.1-0.2,7.1-0.8,10.1-2
		c0.3-0.1,0.5-0.2,0.8-0.4c2.8-1.5,6.1,1.8,6.1,1.8"/>
	<path class="st11" d="M140.9,108.6c0.2-0.4,0.5-0.9,0.9-1.5c1.5-2,4.3-4.6,5.1-5.3c1-0.9,4.7-2.4,8.8-3.9c2.2-0.8,3.6-0.2,4.6,0.7
		c0.9,0.8,1.4,1.8,1.6,2c0.1,0.2,4.2,5,4.5,5.3c0,0,0,0,0,0"/>
	<path class="st11" d="M167.5,126.5c0,0-0.2-3.8-1.2-5.8c-1-2-2.5-9.8-3.7-10.9c-0.3-0.3-0.7-0.8-1.1-1.5c-1.2-2-2.8-5.1-3.5-6.5
		c-1-1.8,2.3-3.1,2.3-3.1"/>
	<path class="st11" d="M164.5,129.4c0,0,2.5,0.9,6.5,0s6-1.2,6.3-3.9c0.3-2.7,0-4.8,0-4.8s-0.5,4,2.5,5.8s5.5,2.2,5.5,2.2"/>
	<path class="st11" d="M194.8,123c0,0,1.7,2.5,0.8,6.4c-0.8,3.9-3.5,5.4-5.2,7.1c-1.7,1.7-7,3.3-8.3,5.3c-1.3,2-1.8,5.3-1.8,5.3"/>
	<path class="st11" d="M146.9,101.9c0,0-0.6-0.2-1.6-0.3c-1.8-0.2-5,0-8.3,2.7c-0.3,0.2-0.5,0.4-0.8,0.6c-4.4,3.8-6.2,6.5-6.4,8.9"
		/>
	<path class="st11" d="M109.7,120.6c1-1.8,5.5-5.1,9.5-8.1c0,0,0,0,0,0c1.2-0.9,2.3-1.7,3.3-2.4c4.5-3.3,13.7-5.2,13.7-5.2"/>
	<path class="st11" d="M64.7,114.8c0,0,1.7,2.8,6,7.2c1.7,1.7,5.8,2.2,10.4,1.8c7.2-0.5,15.8-2.7,19.7-4.8
		c6.3-3.4,17.6-6.3,18.3-6.5c0,0,0,0,0,0"/>
	<path class="st11" d="M81.2,123.9C81.2,123.9,81.2,123.8,81.2,123.9c-1.4-1.2-14.2-5.7-14.5-14.2c-0.3-8.8-0.5-14.9,3.7-20.3
		c3.4-4.3,10.2-7.4,16.9-11h0c1.6-0.8,3.2-1.7,4.7-2.7c7.9-4.8,20.9-13.3,23.2-19.5c2.3-6.2,2.2-17.5-1.5-23s-6.7-9.5-7.3-12
		c-0.7-2.5,1-4,0-7.3c-1-3.3-0.5-4.2-4-5.2s-5.3-3.3-9-2.7c-3.7,0.7-7,1-8,3.3c-1,2.3-1.8,4.3,1.3,6.3s6.5,6.8,7,9
		c0.5,2.2,2.8,10.5,3.8,12.8c1,2.3,2.5,6.7,2.5,8.8c0,2.2-1,5-2.5,7.2C96,55.8,71,71.3,62.9,77.3c-1.6,1.2-3.1,2.2-4.6,3.2
		C52,84.7,46.5,88,42,95.1c-5.5,8.8-7.2,14.8-7.2,21.2c0,2.4,0.3,5.8,0.8,9.1c0.8,5.5,1.9,10.9,2.5,12.2c0.4,0.9,0.8,1.3,1.2,1.6
		c0.6,0.4,1,0.2,1,0.2"/>
	<path class="st11" d="M149.7,208.9c2.5,1.2,5.8,3.8,10.5,6.2s4.5,4.8,7,7.8s6.5,6.5,6.5,6.5s-9.2,5-13.2,6.5s-4,5.8-7.2,8
		s-8.8,4.2-13.8,3.8s-4.8-6.5-11.2-8.2c-6.5-1.8-5-2.8-8.5-8.5s-11.2-11-17-15.5s-5.8-7.2-7-10.5s-5.5-7.5-10.5-7.8
		c-0.5,0-1-0.1-1.5-0.2c-0.2,0-0.3-0.1-0.5-0.1c-0.2-0.1-0.4-0.1-0.6-0.2c-0.2-0.1-0.4-0.2-0.6-0.2c-0.2-0.1-0.4-0.2-0.6-0.3
		c-0.4-0.2-0.7-0.4-1-0.6c-0.2-0.1-0.3-0.3-0.5-0.4c-0.1-0.1-0.2-0.2-0.3-0.3c-0.1-0.1-0.2-0.2-0.3-0.3c-0.1-0.1-0.2-0.2-0.3-0.3
		c-0.5-0.6-0.7-1-0.7-1c-0.1-0.4-0.3-1.1-0.6-1.9c-0.2-0.5-0.4-1.1-0.7-1.7c-1.6-3.8-4.1-8.9-4.1-8.9c-1.2-4.8-3.5-4.7-8.3-8
		c-1.9-1.3-3.3-1.9-4.6-2.3c-2-0.6-3.6-0.9-6.2-2.7c-1.6-1.1-3.1-2.5-4.3-3.9c-0.3-0.4-0.6-0.7-0.9-1.1c-1.8-2.1-2.9-4-2.9-4.3"/>
	<path class="st11" d="M80,155.6c0.1,4.3-2.5,4.8-7.8,5.5c-1.3,0.2-2.7,0.4-4.2,0.6c-0.3,0.1-0.7,0.1-1,0.2
		c-2.1,0.3-3.7,0.4-5.1,0.3c-2.1-0.1-3.8-0.6-5.7-1.3c-1.3-0.4-2.7-0.9-4.5-1.3c-1.2-0.3-2.6-0.6-4-1l0,0c-0.5-0.1-1-0.2-1.6-0.4
		c-0.2,0-0.4-0.1-0.5-0.1c-1.8-0.5-3.8-1-5.7-1.5c-0.5-0.1-1-0.3-1.5-0.4c-3.5-1-6.8-2-9.4-3.2c-0.1,0-0.2-0.1-0.3-0.1
		c-6-2.7-17.8-13.3-20.2-15.7c-2.3-2.3-2.8-5.3,0-6.5c2.8-1.2,6.3,2.2,6.3,2.2s3.3,0.7,13,4.8c2.6,1.1,6.8,1.5,11.5,1.4
		c7.9-0.2,17.4-1.5,23.8-2.5c1.5-0.2,2.9-0.5,4.1-0.6c1.8-0.3,3-0.4,3.4-0.4c2.5,0.2,3.7,3.7,6.8,8.5c2.8,4.3,2.5,5.8,2.5,9.8
		C80,154.5,80,155,80,155.6z"/>
	<path class="st11" d="M60.1,170.3c0,0-2.7,2.1-6.2,3.1c-1.9,0.5-5.2,0.2-8.7-0.4c-3-0.5-6.2-1.2-8.8-1.6c-0.3-0.1-0.7-0.1-1-0.2
		c-1.6-0.3-3-0.4-4.2-0.6c-2.5-0.4-4.6-1-7.8-3c-5.2-3.2-7.8-9.2-11-14.2c-3.2-5-5-0.2-5.8,4.8c-0.8,5,0.6,5.5,3.3,10.2
		c2.7,4.7,7,8.2,14.8,14.7s21.7,8,26.3,8.3c0.9,0.1,2.3,0,4.1,0c3.5-0.2,8.4-0.6,12.6-0.9c1.8-0.2,3.5-0.3,4.9-0.5
		c2.5-0.2,4.3-0.4,4.4-0.4c0,0,0,0,0,0"/>
	<path class="st11" d="M104.7,149.1c0,0-0.5-1.8-5.2,3.2c-4.7,5-6.8,7.9-6.8,7.9"/>
	<path class="st11" d="M103.8,158.3c0,0-2.9,1.8-5.1,4c-2.2,2.2-2.4,6-2.4,6"/>
	<path class="st11" d="M77.2,171.4c0,0,5.2-4.5,6.4-9.2c1.2-4.6,2.7-8.6,1-12.3c-1.7-3.7-2.5-6-2.5-6"/>
	<path class="st11" d="M70.7,135.6c0,0,1.2-0.7,3.1-1.7c0.8-0.4,1.8-0.8,2.9-1.2c1.4-0.5,2.9-1.1,4.6-1.4c5.8-1.3,15.1-4.2,15.1-4.2
		"/>
	<path class="st11" d="M63.2,136.7c0,0-8.5-4.4-11.5-8.5c-0.5-0.7-1-1.3-1.4-2c-2.1-3.2-3.1-5.5-3.1-5.5"/>
	<path class="st11" d="M91.9,151.4c0,0,0.3,0.9,0.6,2.2c0.2,1.2,0.4,2.7,0.4,4.2c0,0.2,0,0.4,0,0.6c0,0.3,0,0.6-0.1,0.8
		c0,0.3-0.1,0.6-0.1,0.9c-0.4,3.8-0.7,8.1-0.8,8.6v0c0,0.3,2.1,0,4.4-0.6c1.7-0.4,3.4-1,4.5-1.7c2.7-1.6,5.7-4,11.7-8.9
		s9.2,0,12.7,0c3.5,0,6.8-2.7,9.8-5.3c2.9-2.7,3.1-4.5,2.6-8.8c-0.5-4.3-1.8-4-2.5-6.3c-0.7-2.3,3-2,6.8-5.2
		c3.8-3.2,6.7-2.6,11.8-2.5c5.2,0.1,6.7,4.1,7,5.1"/>
	<path class="st11" d="M68.8,162.3c0,0-0.8,2.8,1.5,6.7c2.3,3.9,4.2,7.3,7.7,7.9s6-1.7,8.7-3.1c2.7-1.3,5.3-5,5.3-5"/>
	<path class="st11" d="M160.7,134.5c-0.3-1-1.8-5-7-5.1c-5.2-0.1-8-0.7-11.8,2.5c-3.8,3.2-7.5,2.9-6.8,5.2s2,2,2.5,6.3
		c0.5,4.3,0.3,6.2-2.6,8.8s-6.3,5.3-9.8,5.3c-3.5,0-6.7-4.8-12.7,0s-9,7.2-11.7,8.9c-2.7,1.6-9,2.8-8.9,2.3s0.4-5.5,0.9-9.5
		s-0.9-7.9-0.9-7.9"/>
	<path class="st11" d="M45.7,158.3c0,0.4,1.2,2.2,2.9,4.3c0.3,0.4,0.6,0.7,0.9,1.1c1.2,1.4,2.8,2.8,4.3,3.9c2.6,1.8,4.3,2,6.2,2.7
		c1.3,0.4,2.7,1,4.6,2.3c4.8,3.3,7.2,3.2,8.3,8c0,0,2.5,5.1,4.1,8.9c0.2,0.6,0.5,1.2,0.7,1.7c0.3,0.8,0.5,1.5,0.6,1.9
		c0,0,0.2,0.4,0.7,1c0.1,0.1,0.2,0.2,0.3,0.3c0.1,0.1,0.2,0.2,0.3,0.3c0.1,0.1,0.2,0.2,0.3,0.3c0.1,0.1,0.3,0.3,0.5,0.4
		c0.3,0.2,0.6,0.4,1,0.6c0.2,0.1,0.4,0.2,0.6,0.3c0.2,0.1,0.4,0.2,0.6,0.2c0.2,0.1,0.4,0.1,0.6,0.2c0.2,0.1,0.3,0.1,0.5,0.1
		c0.5,0.1,1,0.2,1.5,0.2c5,0.2,9.2,4.5,10.5,7.8s1.2,6,7,10.5s13.5,9.8,17,15.5s2,6.8,8.5,8.5c6.5,1.8,6.2,7.8,11.2,8.2
		s10.5-1.5,13.8-3.8s3.2-6.5,7.2-8s13.2-6.5,13.2-6.5s-4-3.5-6.5-6.5s-2.2-5.2-7-7.8s-8-5-10.5-6.2"/>
</g>
<g id="Layer_4">
</g>
</svg>
